<svg width="25" height="24" viewBox="0 0 25 24" fill="none" xmlns="http://www.w3.org/2000/svg">
<path d="M20.5194 4.88109L19.7835 4.14515C19.5755 3.93716 19.1915 3.96917 18.9515 4.25711L16.3913 6.80108C15.2392 6.30514 13.9754 6.06514 12.6473 6.06514C8.69519 6.08107 5.27141 8.38504 3.62329 11.6973C3.52726 11.9052 3.52726 12.1612 3.62329 12.3372C4.39122 13.9052 5.54329 15.2012 6.9833 16.1772L4.8873 18.3051C4.6473 18.5451 4.61529 18.9291 4.77534 19.1371L5.51128 19.8731C5.71928 20.081 6.10326 20.049 6.34326 19.7611L20.3912 5.71321C20.6952 5.47334 20.7272 5.08938 20.5192 4.88137L20.5194 4.88109ZM13.4953 9.71298C13.2233 9.64896 12.9353 9.56901 12.6633 9.56901C11.3033 9.56901 10.2154 10.657 10.2154 12.0169C10.2154 12.2889 10.2794 12.5769 10.3594 12.8489L9.28724 13.9049C8.96728 13.345 8.7913 12.7209 8.7913 12.017C8.7913 9.88899 10.5033 8.17697 12.6313 8.17697C13.3354 8.17697 13.9593 8.35295 14.5193 8.67291L13.4953 9.71298Z" fill="#666666" fill-opacity="0.8"/>
<path d="M21.6714 11.6974C21.1114 10.5774 20.3753 9.56945 19.4634 8.75342L16.4874 11.6974V12.0174C16.4874 14.1454 14.7754 15.8574 12.6474 15.8574H12.3274L10.4395 17.7454C11.1435 17.8893 11.8795 17.9854 12.5995 17.9854C16.5516 17.9854 19.9754 15.6814 21.6235 12.3532C21.7675 12.1292 21.7675 11.9053 21.6714 11.6973L21.6714 11.6974Z" fill="#666666" fill-opacity="0.8"/>
</svg>
